# xmcd
#
# Track frame offsets:
#	150
#	11129
#	27634
#	43136
#	55104
#	71716
#	89434
#	104975
#	115896
#	134080
#
# Disc length: 1938 seconds
#
# Revision: 0
# Processed by: cddbd v1.4PL0 Copyright (c) Steve Scherf et al.
# Submitted via: dBpowerAMP V4.0
#
DISCID=9c07900a
DTITLE=Scott Hisey - What Will The Good Times Do
DYEAR=2002
DGENRE=Country
TTITLE0=Gettin' Over A Good Sober
TTITLE1=Where Can I Find One Of Those
TTITLE2=Getting The Chance
TTITLE3=Knockin' On Wood
TTITLE4=I'll Never Hurt Again Like That
TTITLE5=What Will The Good Times Do
TTITLE6=Don't Throw Us Away
TTITLE7=She's Gettin Hot
TTITLE8=Haven't Had The Pleasure
TTITLE9=The Nashville Way
EXTD=
EXTT0=
EXTT1=
EXTT2=
EXTT3=
EXTT4=
EXTT5=
EXTT6=
EXTT7=
EXTT8=
EXTT9=
PLAYORDER=
